# xmcd
#
# Track frame offsets:
#	150
#	15048
#	29609
#	49344
#	64758
#	79528
#	94114
#	110019
#	125474
#	141427
#	159978
#	174513
#	191378
#	207626
#	223083
#	238346
#
# Disc length: 3367
#
# Revision: 1
# Processed by: cddbd v1.5.2PL0 Copyright (c) Steve Scherf et al.
# Submitted via: kJams Pro 1.0b33
#
DISCID=e30d2510
DTITLE=Unknown Artist - SYB–1143
DYEAR=2018
DGENRE=Country
TTITLE0=Jason Aldean - You Make It Easy
TTITLE1=Florida Georgia Line - Simple
TTITLE2=Carrie Underwood - Cry Pretty
TTITLE3=Dan and Shay - Tequila
TTITLE4=Morgan Wallen ft Florida Georgia Line - Up Down
TTITLE5=Kenny Chesney - Get Along
TTITLE6=Carly Pearce - Hide the Wine
TTITLE7=Brett Eldredge - The Long Way
TTITLE8=Chris Lane ft Tori Kelly - Take Back Home Girl
TTITLE9=David Lee Murphy - Everything's Gonna Be Alright
TTITLE10=Kelsea Ballerini - I Hate Love Songs
TTITLE11=Luke Bryan - Most People Are Good
TTITLE12=Blake Shelton - I Lived It
TTITLE13=Chris Janson - Drunk Girl
TTITLE14=Lauren Alaina - Doin' Fine
TTITLE15=Jordan Davis - Singles You Up
EXTD=
EXTT0=0511
EXTT1=0511
EXTT2=0511
EXTT3=0511
EXTT4=0511
EXTT5=0511
EXTT6=0511
EXTT7=0511
EXTT8=0511
EXTT9=0511
EXTT10=0511
EXTT11=0511
EXTT12=0511
EXTT13=0511
EXTT14=0511
EXTT15=0511
PLAYORDER=
